<svg width="47" height="47" viewBox="0 0 47 47" fill="none" xmlns="http://www.w3.org/2000/svg">
<g clip-path="url(#clip0_81_823)">
<rect width="47" height="47" rx="23.5" fill="#CECECE"/>
<path d="M23.4999 28.5811C28.6154 28.5811 32.7623 24.4342 32.7623 19.3187C32.7623 14.2032 28.6154 10.0563 23.4999 10.0563C18.3845 10.0563 14.2375 14.2032 14.2375 19.3187C14.2375 24.4342 18.3845 28.5811 23.4999 28.5811Z" fill="#F3F3F3"/>
<path d="M23.4999 33.2123C14.219 33.2123 6.66089 39.4366 6.66089 47.1059C6.66089 47.6246 7.06843 48.0321 7.58713 48.0321H39.4127C39.9314 48.0321 40.3389 47.6246 40.3389 47.1059C40.3389 39.4366 32.7808 33.2123 23.4999 33.2123Z" fill="#F3F3F3"/>
</g>
<defs>
<clipPath id="clip0_81_823">
<rect width="47" height="47" rx="23.5" fill="white"/>
</clipPath>
</defs>
</svg>
